<svg width="156" height="45" viewBox="0 0 156 45" fill="none" xmlns="http://www.w3.org/2000/svg">
<path d="M12.7898 44.3636H16.8125L16.8466 40.4261C24.2273 39.8636 28.5057 35.9432 28.5227 30.0284C28.5057 24.2159 24.125 21.1307 18.0568 19.767L17.0511 19.5284L17.1193 11.0057C19.3864 11.5341 20.767 12.983 20.9716 15.1307H28.0455C27.9602 9.48864 23.75 5.44886 17.1875 4.73295L17.2216 0.72727H13.1989L13.1648 4.69886C6.5 5.34659 1.79545 9.36932 1.82955 15.1818C1.8125 20.3295 5.44318 23.2784 11.3409 24.6932L12.9773 25.1023L12.892 34.1193C10.1136 33.5909 8.23864 31.8864 8.05114 29.0398H0.909091C1.07955 35.9261 5.59659 39.7784 12.8239 40.4091L12.7898 44.3636ZM16.9148 34.1193L16.983 26.1591C19.625 26.9943 21.0568 28.0682 21.0739 30.0114C21.0568 32.0739 19.4886 33.608 16.9148 34.1193ZM13.0284 18.4886C10.8977 17.7557 9.36364 16.6477 9.39773 14.6875C9.39773 12.8636 10.6932 11.4489 13.0966 10.9545L13.0284 18.4886ZM47.4702 5.09091H40.5327L31.8906 10.5625V17.108L39.8849 12.0966H40.0895V40H47.4702V5.09091ZM54.767 40H79.6534V33.9659H64.9943V33.7273L70.0909 28.733C77.267 22.1875 79.1932 18.9148 79.1932 14.9432C79.1932 8.89204 74.25 4.61364 66.767 4.61364C59.4375 4.61364 54.4091 8.99432 54.4261 15.8466H61.4318C61.4148 12.5057 63.5284 10.4602 66.7159 10.4602C69.7841 10.4602 72.0682 12.3693 72.0682 15.4375C72.0682 18.2159 70.3636 20.125 67.1932 23.1761L54.767 34.6818V40ZM90.9503 30.8636H89.1733L86.3608 41.3125H88.1378L90.9503 30.8636ZM99.305 40H105.39V38.2869H101.414V36.4929H105.079V34.7756H101.414V32.9858H105.39V31.2727H99.305V40ZM112.437 40C115.096 40 116.745 38.3594 116.745 35.6321C116.745 32.9091 115.096 31.2727 112.433 31.2727H109.211V40H112.437ZM111.321 38.2017V33.071H112.326C113.826 33.071 114.632 33.7528 114.632 35.6321C114.632 37.5199 113.826 38.2017 112.356 38.2017H111.321ZM122.586 31.2727H120.477V40H122.586V31.2727ZM126.125 32.9858H128.776V40H130.855V32.9858H133.501V31.2727H126.125V32.9858ZM144.87 35.6364C144.87 32.7514 143.047 31.1534 140.703 31.1534C138.35 31.1534 136.539 32.7514 136.539 35.6364C136.539 38.5085 138.35 40.1193 140.703 40.1193C143.047 40.1193 144.87 38.5213 144.87 35.6364ZM142.714 35.6364C142.714 37.3452 141.964 38.2699 140.703 38.2699C139.446 38.2699 138.691 37.3452 138.691 35.6364C138.691 33.9276 139.446 33.0028 140.703 33.0028C141.964 33.0028 142.714 33.9276 142.714 35.6364ZM148.602 40H150.711V37.0128H151.794L153.387 40H155.689L153.877 36.6761C154.836 36.2415 155.39 35.3849 155.39 34.179C155.39 32.3849 154.167 31.2727 152.207 31.2727H148.602V40ZM150.711 35.3509V32.973H151.751C152.697 32.973 153.204 33.3693 153.204 34.179C153.204 34.9886 152.697 35.3509 151.751 35.3509H150.711Z" fill="#2D3436"/>
</svg>
