<svg width="191" height="37" viewBox="0 0 191 37" fill="none" xmlns="http://www.w3.org/2000/svg">
<path d="M0.0340909 35H7.41477V20.5795H21.6136V14.4943H7.41477V6.17614H23.1477V0.0909081H0.0340909V35ZM26.554 35H33.8153V20.1875C33.8153 16.9659 36.1676 14.75 39.3722 14.75C40.3778 14.75 41.7585 14.9205 42.4403 15.142V8.69886C41.7926 8.54545 40.8892 8.44318 40.1562 8.44318C37.2244 8.44318 34.821 10.1477 33.8665 13.3864H33.5938V8.81818H26.554V35ZM55.9077 35.5114C62.3849 35.5114 66.7486 32.358 67.7713 27.5L61.0554 27.0568C60.3224 29.0511 58.4474 30.0909 56.027 30.0909C52.3963 30.0909 50.0952 27.6875 50.0952 23.7841V23.767H67.9247V21.7727C67.9247 12.875 62.5384 8.47727 55.6179 8.47727C47.9134 8.47727 42.919 13.9489 42.919 22.0284C42.919 30.3295 47.8452 35.5114 55.9077 35.5114ZM50.0952 19.267C50.2486 16.2841 52.5156 13.8977 55.7372 13.8977C58.8906 13.8977 61.0724 16.1477 61.0895 19.267H50.0952ZM83.5952 35.5114C90.0724 35.5114 94.4361 32.358 95.4588 27.5L88.7429 27.0568C88.0099 29.0511 86.1349 30.0909 83.7145 30.0909C80.0838 30.0909 77.7827 27.6875 77.7827 23.7841V23.767H95.6122V21.7727C95.6122 12.875 90.2259 8.47727 83.3054 8.47727C75.6009 8.47727 70.6065 13.9489 70.6065 22.0284C70.6065 30.3295 75.5327 35.5114 83.5952 35.5114ZM77.7827 19.267C77.9361 16.2841 80.2031 13.8977 83.4247 13.8977C86.5781 13.8977 88.7599 16.1477 88.777 19.267H77.7827ZM111.263 25.8636H109.486L106.673 36.3125H108.45L111.263 25.8636ZM119.618 35H121.727V31.4929H125.196V29.7756H121.727V27.9858H125.575V26.2727H119.618V35ZM137.374 30.6364C137.374 27.7514 135.55 26.1534 133.207 26.1534C130.854 26.1534 129.043 27.7514 129.043 30.6364C129.043 33.5085 130.854 35.1193 133.207 35.1193C135.55 35.1193 137.374 33.5213 137.374 30.6364ZM135.218 30.6364C135.218 32.3452 134.468 33.2699 133.207 33.2699C131.95 33.2699 131.195 32.3452 131.195 30.6364C131.195 28.9276 131.95 28.0028 133.207 28.0028C134.468 28.0028 135.218 28.9276 135.218 30.6364ZM141.106 35H143.215V32.0128H144.298L145.891 35H148.192L146.381 31.6761C147.34 31.2415 147.894 30.3849 147.894 29.179C147.894 27.3849 146.671 26.2727 144.711 26.2727H141.106V35ZM143.215 30.3509V27.973H144.255C145.201 27.973 145.708 28.3693 145.708 29.179C145.708 29.9886 145.201 30.3509 144.255 30.3509H143.215ZM151.551 35H157.636V33.2869H153.661V31.4929H157.325V29.7756H153.661V27.9858H157.636V26.2727H151.551V35ZM163.439 26.2727H161.078L164.023 35H166.831L169.776 26.2727H167.415L165.463 32.6648H165.391L163.439 26.2727ZM173.215 35H179.3V33.2869H175.325V31.4929H178.989V29.7756H175.325V27.9858H179.3V26.2727H173.215V35ZM183.121 35H185.231V32.0128H186.313L187.907 35H190.208L188.397 31.6761C189.356 31.2415 189.91 30.3849 189.91 29.179C189.91 27.3849 188.687 26.2727 186.727 26.2727H183.121V35ZM185.231 30.3509V27.973H186.271C187.217 27.973 187.724 28.3693 187.724 29.179C187.724 29.9886 187.217 30.3509 186.271 30.3509H185.231Z" fill="#2D3436"/>
</svg>
