<svg width="168" height="45" viewBox="0 0 168 45" fill="none" xmlns="http://www.w3.org/2000/svg">
<path d="M12.7898 44.3636H16.8125L16.8466 40.4261C24.2273 39.8636 28.5057 35.9432 28.5227 30.0284C28.5057 24.2159 24.125 21.1307 18.0568 19.767L17.0511 19.5284L17.1193 11.0057C19.3864 11.5341 20.767 12.983 20.9716 15.1307H28.0455C27.9602 9.48864 23.75 5.44886 17.1875 4.73295L17.2216 0.72727H13.1989L13.1648 4.69886C6.5 5.34659 1.79545 9.36932 1.82955 15.1818C1.8125 20.3295 5.44318 23.2784 11.3409 24.6932L12.9773 25.1023L12.892 34.1193C10.1136 33.5909 8.23864 31.8864 8.05114 29.0398H0.909091C1.07955 35.9261 5.59659 39.7784 12.8239 40.4091L12.7898 44.3636ZM16.9148 34.1193L16.983 26.1591C19.625 26.9943 21.0568 28.0682 21.0739 30.0114C21.0568 32.0739 19.4886 33.608 16.9148 34.1193ZM13.0284 18.4886C10.8977 17.7557 9.36364 16.6477 9.39773 14.6875C9.39773 12.8636 10.6932 11.4489 13.0966 10.9545L13.0284 18.4886ZM32.2827 40H57.169V33.9659H42.5099V33.7273L47.6065 28.733C54.7827 22.1875 56.7088 18.9148 56.7088 14.9432C56.7088 8.89204 51.7656 4.61364 44.2827 4.61364C36.9531 4.61364 31.9247 8.99432 31.9418 15.8466H38.9474C38.9304 12.5057 41.044 10.4602 44.2315 10.4602C47.2997 10.4602 49.5838 12.3693 49.5838 15.4375C49.5838 18.2159 47.8793 20.125 44.7088 23.1761L32.2827 34.6818V40ZM60.2386 33.8636H76.9943V40H84.0511V33.8636H88.3807V27.9489H84.0511V5.09091H74.8125L60.2386 28.0511V33.8636ZM77.1307 27.9489H67.6705V27.6761L76.858 13.1364H77.1307V27.9489ZM104.278 30.8636H102.501L99.6889 41.3125H101.466L104.278 30.8636ZM112.633 31.2727V40H114.687V34.6094H114.76L116.856 39.9446H118.169L120.265 34.6392H120.338V40H122.392V31.2727H119.779L117.564 36.6761H117.461L115.245 31.2727H112.633ZM134.445 35.6364C134.445 32.7514 132.621 31.1534 130.277 31.1534C127.925 31.1534 126.114 32.7514 126.114 35.6364C126.114 38.5085 127.925 40.1193 130.277 40.1193C132.621 40.1193 134.445 38.5213 134.445 35.6364ZM132.288 35.6364C132.288 37.3452 131.538 38.2699 130.277 38.2699C129.02 38.2699 128.266 37.3452 128.266 35.6364C128.266 33.9276 129.02 33.0028 130.277 33.0028C131.538 33.0028 132.288 33.9276 132.288 35.6364ZM145.604 31.2727H143.499V36.3011H143.426L139.991 31.2727H138.176V40H140.286V34.9631H140.341L143.814 40H145.604V31.2727ZM149.145 32.9858H151.795V40H153.875V32.9858H156.521V31.2727H149.145V32.9858ZM160.051 40H162.161V36.4929H165.599V40H167.705V31.2727H165.599V34.7756H162.161V31.2727H160.051V40Z" fill="#2D3436"/>
</svg>
